<?xml version="1.0" encoding="UTF-8" standalone="no"?>
<!-- Created with Inkscape (http://www.inkscape.org/) -->

<svg
   width="200"
   height="275"
   viewBox="0 0 199.99999 275.00001"
   version="1.1"
   id="svg49"
   inkscape:version="1.1.2 (0a00cf5339, 2022-02-04, custom)"
   sodipodi:docname="coin.svg"
   xmlns:inkscape="http://www.inkscape.org/namespaces/inkscape"
   xmlns:sodipodi="http://sodipodi.sourceforge.net/DTD/sodipodi-0.dtd"
   xmlns="http://www.w3.org/2000/svg"
   xmlns:svg="http://www.w3.org/2000/svg"
   xmlns:rdf="http://www.w3.org/1999/02/22-rdf-syntax-ns#"
   xmlns:cc="http://creativecommons.org/ns#"
   xmlns:dc="http://purl.org/dc/elements/1.1/">
  <defs
     id="defs43" />
  <sodipodi:namedview
     id="base"
     pagecolor="#505050"
     bordercolor="#b1aeb0"
     borderopacity="1"
     inkscape:pageopacity="0"
     inkscape:pageshadow="2"
     inkscape:zoom="2.8"
     inkscape:cx="77.678571"
     inkscape:cy="155.35714"
     inkscape:document-units="px"
     inkscape:current-layer="layer1"
     inkscape:pagecheckerboard="0"
     showgrid="true"
     borderlayer="true"
     units="px"
     inkscape:window-width="3440"
     inkscape:window-height="1411"
     inkscape:window-x="1920"
     inkscape:window-y="0"
     inkscape:window-maximized="1">
    <inkscape:grid
       type="xygrid"
       id="grid51" />
  </sodipodi:namedview>
  <metadata
     id="metadata46">
    <rdf:RDF>
      <cc:Work
         rdf:about="">
        <dc:format>image/svg+xml</dc:format>
        <dc:type
           rdf:resource="http://purl.org/dc/dcmitype/StillImage" />
      </cc:Work>
    </rdf:RDF>
  </metadata>
  <g
     inkscape:label="Layer 1"
     inkscape:groupmode="layer"
     id="layer1">
    <ellipse
       style="fill:none;fill-opacity:0.29685;stroke:#ffffff;stroke-width:4;stroke-opacity:1"
       id="path848"
       cx="55.551407"
       cy="178.75197"
       rx="50"
       ry="35"
       transform="rotate(-15.405697)" />
    <path
       style="fill:none;stroke:#ffffff;stroke-width:4;stroke-linecap:round;stroke-linejoin:miter;stroke-miterlimit:4;stroke-dasharray:none;stroke-opacity:1"
       d="m 89.781996,148.69744 c 0.218049,-0.57242 0.754077,-0.96591 1.149335,-1.43387 0.864023,-1.02293 1.805564,-1.98143 2.627952,-3.03813 0.826994,-1.06261 1.503675,-2.23565 2.313624,-3.31132 0.186867,-0.24819 0.480985,-0.40169 0.668613,-0.64929 0.38296,-0.50539 0.52342,-1.38429 1.086963,-1.7677 0.280176,-0.19061 1.336916,3.7365 1.421958,3.95967 0.768795,2.01741 1.596319,3.97086 2.153269,6.07005 0.99572,3.75299 1.52652,7.58092 2.4267,11.35004 0.58667,2.45646 1.54603,4.87498 2.30978,7.28324 0.13102,0.41323 1.25287,3.55292 1.17856,3.71624 -0.10014,0.22011 -0.26509,0.4045 -0.39762,0.60676"
       id="path1398"
       sodipodi:nodetypes="cssssssssssc" />
    <path
       style="fill:none;stroke:#ffffff;stroke-width:4;stroke-linecap:round;stroke-linejoin:miter;stroke-miterlimit:4;stroke-dasharray:none;stroke-opacity:1"
       d="m 100.7018,174.53453 c 1.67659,-0.17299 3.58226,-0.62723 5.11817,-1.35106 0.45361,-0.21372 0.77313,-0.65073 1.21655,-0.88487 0.35558,-0.18777 0.78054,-0.20568 1.14989,-0.36466 0.24764,-0.10653 0.44146,-0.31573 0.68745,-0.42606 0.092,-0.0413 3.31065,-1.2581 3.69697,-1.17246 1.03582,0.22964 0.9987,0.10996 2.42917,-0.33542"
       id="path1400" />
  </g>
</svg>
